<svg width="378" height="315" viewBox="0 0 378 315" fill="none" xmlns="http://www.w3.org/2000/svg">
<path d="M233 72.5366L233.138 73.527L233 72.5366ZM239 6L238.855 6.98946L238.995 7.00994L239.135 6.9908L239 6ZM179 154.537L178.569 155.439L179 154.537ZM361 314.537L370.46 307.915L359.996 303.033L361 314.537ZM0.00079906 0.576589C0.0285257 1.26976 0.109325 1.96736 0.24088 2.66836L2.20656 2.29946C2.09202 1.68911 2.02286 1.08811 1.9992 0.496653L0.00079906 0.576589ZM1.51149 6.66524C2.04317 7.86555 2.70799 9.07283 3.49632 10.2841L5.17258 9.19316C4.43474 8.05945 3.82321 6.94585 3.34013 5.85525L1.51149 6.66524ZM5.91453 13.5581C6.73686 14.5555 7.63856 15.5565 8.61562 16.5594L10.0482 15.1638C9.10584 14.1965 8.24154 13.2366 7.45772 12.2858L5.91453 13.5581ZM11.524 19.3527C12.4948 20.2293 13.5209 21.1071 14.6 21.9853L15.8623 20.434C14.8078 19.5759 13.8079 18.7203 12.8644 17.8683L11.524 19.3527ZM17.7619 24.4468C18.7998 25.2215 19.8778 25.996 20.9941 26.7695L22.1332 25.1256C21.0351 24.3647 19.9763 23.6039 18.9581 22.844L17.7619 24.4468ZM24.3441 29.0136C25.4349 29.7208 26.5571 30.4268 27.7093 31.1311L28.7523 29.4246C27.6146 28.7292 26.5075 28.0326 25.4321 27.3354L24.3441 29.0136ZM31.1406 33.1718C32.2791 33.831 33.4435 34.4883 34.6326 35.1432L35.5974 33.3913C34.4204 32.7431 33.2685 32.0928 32.1428 31.441L31.1406 33.1718ZM38.1246 37.0217C39.2959 37.6375 40.4888 38.2508 41.7023 38.8611L42.6009 37.0743C41.3978 36.4692 40.2157 35.8615 39.0553 35.2515L38.1246 37.0217ZM45.247 40.6068C46.4412 41.183 47.6537 41.7562 48.8836 42.3261L49.7244 40.5114C48.5037 39.9458 47.3007 39.3771 46.116 38.8055L45.247 40.6068ZM52.4781 43.9598C53.6889 44.4997 54.9151 45.0362 56.1563 45.5691L56.9453 43.7314C55.7126 43.2021 54.4948 42.6692 53.2926 42.1332L52.4781 43.9598ZM59.7992 47.1051C61.0223 47.6115 62.2586 48.1142 63.5077 48.6131L64.2495 46.7557C63.0081 46.2599 61.7795 45.7603 60.5643 45.2572L59.7992 47.1051ZM67.1978 50.061C68.4304 50.5362 69.6745 51.0075 70.9296 51.4747L71.6273 49.6003C70.3794 49.1358 69.1426 48.6673 67.9172 48.1949L67.1978 50.061ZM74.6646 52.841C75.9052 53.2869 77.1556 53.7287 78.4155 54.1662L79.0715 52.2768C77.8184 51.8418 76.5749 51.4024 75.3412 50.9589L74.6646 52.841ZM82.1925 55.4549C83.4399 55.8731 84.6959 56.2869 85.9601 56.6962L86.5761 54.7934C85.3185 54.3863 84.0691 53.9746 82.8282 53.5586L82.1925 55.4549ZM89.7749 57.9095C91.0288 58.3012 92.2902 58.6883 93.5585 59.0706L94.1357 57.1558C92.8738 56.7753 91.6188 56.3902 90.3713 56.0005L89.7749 57.9095ZM97.3842 60.203C98.6518 60.5714 99.9258 60.9348 101.206 61.2932L101.745 59.3672C100.471 59.0106 99.2036 58.649 97.9423 58.2825L97.3842 60.203ZM105.042 62.3469C106.321 62.6917 107.607 63.0314 108.897 63.3657L109.399 61.4296C108.115 61.0969 106.835 60.7589 105.562 60.4158L105.042 62.3469ZM112.745 64.3426C114.032 64.6629 115.324 64.9778 116.621 65.2871L117.085 63.3417C115.794 63.0339 114.509 62.7205 113.227 62.4018L112.745 64.3426ZM120.488 66.19C121.779 66.4848 123.074 66.774 124.373 67.0574L124.799 65.1034C123.507 64.8214 122.218 64.5336 120.934 64.2402L120.488 66.19ZM128.268 67.8875C129.563 68.157 130.862 68.4206 132.164 68.6781L132.552 66.7161C131.257 66.4599 129.964 66.1976 128.675 65.9294L128.268 67.8875ZM136.077 69.4323C137.378 69.6764 138.682 69.9144 139.988 70.146L140.337 68.1767C139.037 67.9463 137.74 67.7095 136.445 67.4666L136.077 69.4323ZM143.91 70.8212C145.218 71.0397 146.528 71.2516 147.84 71.4569L148.149 69.4809C146.844 69.2767 145.541 69.0659 144.239 68.8485L143.91 70.8212ZM151.774 72.0518C153.087 72.2433 154.4 72.428 155.715 72.6057L155.983 70.6238C154.675 70.447 153.368 70.2632 152.063 70.0727L151.774 72.0518ZM159.663 73.1181C160.98 73.2817 162.298 73.4383 163.615 73.5874L163.84 71.6002C162.53 71.4518 161.22 71.2961 159.91 71.1333L159.663 73.1181ZM167.573 74.0134C168.895 74.1482 170.216 74.2754 171.537 74.395L171.718 72.4031C170.404 72.2843 169.09 72.1577 167.776 72.0237L167.573 74.0134ZM175.499 74.7302C176.825 74.8347 178.151 74.9313 179.476 75.0196L179.609 73.0241C178.293 72.9362 176.975 72.8403 175.656 72.7364L175.499 74.7302ZM183.448 75.2603C184.775 75.3326 186.101 75.3965 187.425 75.4518L187.509 73.4535C186.193 73.3986 184.876 73.3351 183.557 73.2633L183.448 75.2603ZM191.409 75.5925C192.735 75.6306 194.058 75.66 195.379 75.6803L195.41 73.6806C194.098 73.6603 192.783 73.6312 191.466 73.5933L191.409 75.5925ZM199.375 75.7144C200.704 75.7165 202.03 75.7092 203.352 75.6925L203.327 73.6926C202.014 73.7093 200.697 73.7165 199.378 73.7144L199.375 75.7144ZM207.339 75.6125C208.671 75.5759 209.999 75.5293 211.323 75.4726L211.238 73.4744C209.924 73.5307 208.606 73.5769 207.284 73.6133L207.339 75.6125ZM215.293 75.2711C216.628 75.1927 217.958 75.1037 219.283 75.0037L219.132 73.0094C217.819 73.1085 216.5 73.1968 215.176 73.2746L215.293 75.2711ZM223.242 74.6713C224.574 74.5479 225.9 74.4131 227.221 74.2667L227.001 72.2789C225.692 72.4239 224.378 72.5575 223.057 72.6798L223.242 74.6713ZM231.175 73.7913C231.831 73.7062 232.486 73.6181 233.138 73.527L232.862 71.5462C232.216 71.6364 231.568 71.7236 230.918 71.8079L231.175 73.7913ZM233.138 73.527C233.834 73.43 234.521 73.3298 235.2 73.2266L234.9 71.2493C234.229 71.3513 233.549 71.4503 232.862 71.5462L233.138 73.527ZM239.18 72.5706C240.541 72.3282 241.867 72.0727 243.159 71.8046L242.752 69.8463C241.48 70.1105 240.172 70.3624 238.829 70.6016L239.18 72.5706ZM247.073 70.9292C248.434 70.6019 249.754 70.2597 251.032 69.9033L250.495 67.9768C249.24 68.3266 247.944 68.6628 246.606 68.9846L247.073 70.9292ZM254.868 68.7525C256.203 68.3221 257.488 67.8747 258.725 67.4115L258.023 65.5386C256.817 65.9905 255.561 66.4277 254.254 66.849L254.868 68.7525ZM262.51 65.879C263.792 65.3182 265.013 64.7383 266.175 64.1407L265.261 62.362C264.137 62.9397 262.954 63.5018 261.708 64.0466L262.51 65.879ZM269.715 62.1572C270.926 61.417 272.059 60.6546 273.116 59.8722L271.926 58.2646C270.919 59.0102 269.835 59.7398 268.672 60.4508L269.715 62.1572ZM276.3 57.2507C277.354 56.2805 278.307 55.2858 279.162 54.2704L277.632 52.9822C276.835 53.9297 275.941 54.8633 274.946 55.7788L276.3 57.2507ZM281.605 50.8931C282.357 49.6639 282.981 48.4135 283.482 47.1485L281.622 46.412C281.165 47.568 280.593 48.7157 279.899 49.8494L281.605 50.8931ZM284.661 43.1276C284.931 41.7402 285.066 40.3477 285.074 38.9587L283.074 38.9463C283.067 40.214 282.944 41.4827 282.698 42.7455L284.661 43.1276ZM284.728 34.7902C284.495 33.4284 284.148 32.0801 283.696 30.7534L281.803 31.398C282.222 32.6295 282.543 33.8752 282.757 35.1276L284.728 34.7902ZM282.079 26.9262C281.462 25.709 280.76 24.5179 279.979 23.3596L278.321 24.4772C279.057 25.57 279.717 26.6897 280.294 27.8296L282.079 26.9262ZM277.488 20.0786C276.609 19.0439 275.666 18.044 274.666 17.0844L273.281 18.5274C274.234 19.4413 275.13 20.3919 275.963 21.3734L277.488 20.0786ZM271.567 14.3845C270.502 13.5411 269.388 12.74 268.233 11.9863L267.14 13.6612C268.245 14.3819 269.308 15.1475 270.326 15.9528L271.567 14.3845ZM264.699 9.89893C263.497 9.25939 262.26 8.6697 260.994 8.13471L260.215 9.97698C261.426 10.4887 262.61 11.0528 263.76 11.6646L264.699 9.89893ZM257.147 6.7094C255.847 6.29387 254.524 5.93606 253.183 5.64073L252.753 7.59395C254.033 7.87573 255.296 8.21734 256.538 8.61438L257.147 6.7094ZM249.133 4.94983C247.777 4.78549 246.408 4.68668 245.031 4.65804L244.99 6.6576C246.298 6.68483 247.601 6.77878 248.892 6.9353L249.133 4.94983ZM240.918 4.78416C240.234 4.84084 239.549 4.91566 238.865 5.0092L239.135 6.9908C239.785 6.9021 240.434 6.83111 241.083 6.77733L240.918 4.78416ZM239.145 5.01054C238.513 4.91813 237.868 4.837 237.208 4.76696L236.997 6.75577C237.631 6.82317 238.251 6.90105 238.855 6.98946L239.145 5.01054ZM233.141 4.47996C231.854 4.43123 230.526 4.4176 229.161 4.43816L229.191 6.43793C230.524 6.41786 231.816 6.43122 233.065 6.47853L233.141 4.47996ZM225.163 4.58923C223.846 4.6673 222.5 4.77359 221.129 4.90746L221.323 6.898C222.671 6.76647 223.991 6.66222 225.281 6.58573L225.163 4.58923ZM217.206 5.35626C215.895 5.52749 214.565 5.72187 213.216 5.93892L213.534 7.9135C214.864 7.69949 216.175 7.50799 217.465 7.33942L217.206 5.35626ZM209.32 6.62025C208.021 6.86484 206.71 7.12915 205.386 7.4128L205.805 9.36838C207.113 9.08814 208.408 8.82712 209.69 8.58568L209.32 6.62025ZM201.518 8.28915C200.232 8.5961 198.937 8.92046 197.634 9.26188L198.142 11.1965C199.43 10.8588 200.711 10.538 201.982 10.2345L201.518 8.28915ZM193.807 10.3089C192.533 10.6717 191.254 11.0503 189.971 11.4444L190.558 13.3562C191.828 12.9661 193.094 12.5914 194.355 12.2324L193.807 10.3089ZM186.189 12.6478C184.929 13.0626 183.667 13.492 182.404 13.9356L183.067 15.8225C184.317 15.3833 185.567 14.9582 186.814 14.5475L186.189 12.6478ZM178.671 15.2885C177.428 15.7531 176.185 16.2313 174.944 16.7228L175.681 18.5822C176.909 18.0955 178.14 17.6221 179.371 17.162L178.671 15.2885ZM171.263 18.2238C170.039 18.7371 168.819 19.2632 167.604 19.8019L168.415 21.6303C169.617 21.0971 170.825 20.5763 172.037 20.0682L171.263 18.2238ZM163.978 21.4545C162.775 22.0178 161.579 22.5934 160.39 23.181L161.277 24.9738C162.452 24.3925 163.636 23.8231 164.826 23.2658L163.978 21.4545ZM156.834 24.9887C155.654 25.6046 154.484 26.2325 153.325 26.8722L154.291 28.6233C155.437 27.9911 156.593 27.3704 157.759 26.7615L156.834 24.9887ZM149.854 28.8417C148.702 29.5142 147.562 30.1985 146.436 30.8945L147.488 32.5957C148.599 31.9089 149.724 31.2332 150.862 30.5691L149.854 28.8417ZM143.071 33.037C141.952 33.7713 140.848 34.5174 139.762 35.2752L140.907 36.9153C141.977 36.1688 143.064 35.4334 144.168 34.7093L143.071 33.037ZM136.527 37.6071C135.449 38.4096 134.392 39.2241 133.356 40.0503L134.604 41.6137C135.621 40.8018 136.661 40.0008 137.721 39.2112L136.527 37.6071ZM130.281 42.5945C129.259 43.4726 128.261 44.363 127.291 45.2654L128.653 46.7299C129.603 45.8462 130.581 44.9734 131.584 44.1118L130.281 42.5945ZM124.421 48.0517C123.473 49.0133 122.556 49.9877 121.673 50.9743L123.163 52.3083C124.024 51.3465 124.918 50.3955 125.845 49.4557L124.421 48.0517ZM119.072 54.0368C118.226 55.0894 117.419 56.155 116.653 57.2333L118.283 58.3917C119.026 57.3469 119.809 56.3127 120.631 55.2896L119.072 54.0368ZM114.421 60.6024C113.715 61.7504 113.056 62.9117 112.447 64.086L114.222 65.0067C114.808 63.8774 115.442 62.7584 116.124 61.6502L114.421 60.6024ZM110.722 67.7688C110.199 69.0184 109.733 70.2816 109.328 71.5576L111.235 72.1624C111.621 70.945 112.066 69.7377 112.567 68.5409L110.722 67.7688ZM108.288 75.4794C108.005 76.8008 107.789 78.1346 107.642 79.4799L109.631 79.6968C109.77 78.4204 109.975 77.1538 110.244 75.8974L108.288 75.4794ZM107.414 83.5475C107.41 84.8831 107.475 86.2284 107.613 87.5827L109.603 87.3803C109.472 86.0955 109.41 84.8199 109.414 83.5539L107.414 83.5475ZM108.231 91.5964C108.499 92.898 108.835 94.2064 109.242 95.5212L111.152 94.9308C110.765 93.6763 110.445 92.4301 110.19 91.1925L108.231 91.5964ZM110.601 99.3093C111.103 100.537 111.667 101.769 112.294 103.006L114.078 102.101C113.474 100.912 112.933 99.7285 112.452 98.5524L110.601 99.3093ZM114.228 106.496C114.907 107.626 115.64 108.76 116.429 109.896L118.072 108.756C117.308 107.654 116.598 106.557 115.942 105.465L114.228 106.496ZM118.801 113.111C119.602 114.135 120.449 115.162 121.342 116.19L122.852 114.879C121.981 113.875 121.156 112.875 120.376 111.878L118.801 113.111ZM124.087 119.205C124.965 120.126 125.881 121.048 126.835 121.972L128.226 120.535C127.29 119.629 126.394 118.726 125.535 117.825L124.087 119.205ZM129.812 124.747C130.776 125.613 131.773 126.479 132.805 127.347L134.092 125.816C133.076 124.962 132.095 124.11 131.149 123.26L129.812 124.747ZM135.852 129.831C136.9 130.66 137.98 131.49 139.092 132.321L140.289 130.718C139.191 129.898 138.126 129.08 137.094 128.263L135.852 129.831ZM142.279 134.64C143.326 135.382 144.398 136.124 145.497 136.867L146.617 135.21C145.53 134.475 144.47 133.741 143.436 133.008L142.279 134.64ZM148.875 139.098C149.987 139.816 151.124 140.534 152.287 141.253L153.339 139.552C152.187 138.84 151.06 138.129 149.96 137.418L148.875 139.098ZM155.587 143.253C156.709 143.92 157.853 144.587 159.02 145.255L160.013 143.519C158.856 142.857 157.721 142.195 156.609 141.534L155.587 143.253ZM162.588 147.258C163.723 147.883 164.877 148.509 166.051 149.134L166.991 147.369C165.825 146.748 164.679 146.127 163.554 145.507L162.588 147.258ZM169.486 150.935C170.65 151.535 171.832 152.135 173.034 152.736L173.928 150.947C172.734 150.35 171.559 149.754 170.403 149.157L169.486 150.935ZM176.696 154.538C177.315 154.838 177.94 155.139 178.569 155.439L179.431 153.634C178.805 153.336 178.184 153.037 177.568 152.738L176.696 154.538ZM178.569 155.439C179.17 155.726 179.775 156.01 180.382 156.291L181.221 154.476C180.621 154.198 180.024 153.918 179.431 153.634L178.569 155.439ZM184.064 157.942C185.298 158.478 186.544 159.004 187.801 159.519L188.559 157.668C187.315 157.158 186.082 156.638 184.862 156.108L184.064 157.942ZM191.535 161.007C192.79 161.493 194.055 161.97 195.33 162.438L196.019 160.56C194.755 160.096 193.501 159.624 192.258 159.142L191.535 161.007ZM199.114 163.791C200.381 164.233 201.655 164.666 202.937 165.092L203.567 163.194C202.294 162.771 201.029 162.341 199.773 161.903L199.114 163.791ZM206.776 166.338C208.05 166.742 209.331 167.139 210.619 167.53L211.2 165.616C209.92 165.228 208.647 164.833 207.381 164.431L206.776 166.338ZM214.498 168.684C215.779 169.057 217.066 169.425 218.357 169.787L218.897 167.862C217.612 167.501 216.332 167.135 215.058 166.764L214.498 168.684ZM222.245 170.859C223.538 171.209 224.836 171.555 226.137 171.896L226.644 169.961C225.348 169.621 224.055 169.277 222.767 168.928L222.245 170.859ZM230.031 172.902C231.332 173.234 232.637 173.561 233.943 173.886L234.425 171.944C233.122 171.621 231.822 171.295 230.525 170.964L230.031 172.902ZM237.846 174.843C239.148 175.159 240.453 175.472 241.759 175.782L242.222 173.837C240.918 173.527 239.617 173.214 238.317 172.899L237.846 174.843ZM245.676 176.706C246.981 177.011 248.287 177.315 249.592 177.617L250.043 175.668C248.738 175.367 247.434 175.064 246.131 174.759L245.676 176.706ZM253.51 178.517C254.818 178.817 256.126 179.115 257.433 179.413L257.877 177.463C256.571 177.165 255.264 176.867 253.956 176.568L253.51 178.517ZM261.35 180.304C262.658 180.602 263.965 180.899 265.269 181.196L265.714 179.246C264.409 178.949 263.102 178.651 261.794 178.354L261.35 180.304ZM269.19 182.092C270.494 182.391 271.795 182.69 273.093 182.991L273.544 181.043C272.244 180.742 270.942 180.442 269.637 180.143L269.19 182.092ZM277.017 183.906C278.322 184.212 279.623 184.52 280.919 184.83L281.384 182.884C280.085 182.574 278.781 182.265 277.474 181.959L277.017 183.906ZM284.822 185.772C286.128 186.091 287.429 186.412 288.724 186.737L289.21 184.797C287.911 184.471 286.606 184.149 285.296 183.829L284.822 185.772ZM292.593 187.72C293.901 188.057 295.202 188.398 296.495 188.743L297.01 186.811C295.711 186.464 294.405 186.122 293.092 185.783L292.593 187.72ZM300.351 189.791C301.649 190.15 302.938 190.514 304.218 190.883L304.772 188.961C303.485 188.59 302.189 188.224 300.884 187.863L300.351 189.791ZM308.061 192.016C309.344 192.403 310.617 192.796 311.879 193.196L312.483 191.289C311.212 190.887 309.93 190.491 308.639 190.101L308.061 192.016ZM315.701 194.438C316.966 194.861 318.218 195.29 319.457 195.728L320.123 193.842C318.873 193.4 317.61 192.967 316.334 192.541L315.701 194.438ZM323.246 197.107C324.494 197.576 325.727 198.053 326.944 198.541L327.687 196.684C326.456 196.191 325.21 195.708 323.949 195.235L323.246 197.107ZM330.662 200.081C331.888 200.608 333.097 201.146 334.287 201.695L335.125 199.879C333.918 199.322 332.693 198.777 331.451 198.243L330.662 200.081ZM337.901 203.431C339.095 204.028 340.267 204.638 341.417 205.263L342.372 203.505C341.201 202.869 340.008 202.249 338.795 201.642L337.901 203.431ZM344.893 207.237C346.039 207.917 347.158 208.614 348.251 209.328L349.345 207.653C348.227 206.923 347.084 206.212 345.915 205.517L344.893 207.237ZM351.538 211.587C352.613 212.364 353.657 213.161 354.67 213.979L355.926 212.422C354.885 211.582 353.812 210.764 352.711 209.966L351.538 211.587ZM357.694 216.565C358.672 217.453 359.615 218.364 360.522 219.299L361.958 217.906C361.02 216.94 360.047 216 359.039 215.084L357.694 216.565ZM363.182 222.234C364.031 223.239 364.841 224.27 365.611 225.329L367.229 224.153C366.43 223.054 365.59 221.985 364.71 220.943L363.182 222.234ZM367.805 228.602C368.49 229.715 369.133 230.855 369.733 232.026L371.513 231.114C370.889 229.896 370.22 228.71 369.508 227.554L367.805 228.602ZM371.391 235.604C371.889 236.798 372.344 238.022 372.756 239.276L374.656 238.652C374.228 237.349 373.755 236.077 373.238 234.835L371.391 235.604ZM373.85 243.091C374.157 244.335 374.424 245.608 374.649 246.911L376.62 246.57C376.386 245.221 376.11 243.902 375.791 242.612L373.85 243.091ZM375.197 250.87C375.33 252.138 375.426 253.433 375.484 254.755L377.482 254.667C377.423 253.306 377.324 251.97 377.186 250.661L375.197 250.87ZM375.545 258.76C375.528 260.04 375.478 261.345 375.394 262.675L377.39 262.802C377.476 261.439 377.528 260.101 377.545 258.786L375.545 258.76ZM375.047 266.641C374.903 267.938 374.729 269.257 374.522 270.599L376.499 270.904C376.71 269.534 376.888 268.187 377.035 266.861L375.047 266.641ZM373.851 274.465C373.599 275.775 373.317 277.106 373.006 278.458L374.955 278.907C375.271 277.532 375.558 276.178 375.815 274.844L373.851 274.465ZM372.073 282.239C371.741 283.499 371.385 284.778 371.004 286.075L372.923 286.639C373.309 285.324 373.671 284.027 374.007 282.748L372.073 282.239ZM369.79 290.001C369.4 291.207 368.988 292.427 368.556 293.663L370.443 294.324C370.881 293.074 371.297 291.838 371.693 290.617L369.79 290.001ZM367.194 297.418C366.718 298.685 366.221 299.968 365.703 301.266L367.56 302.008C368.084 300.697 368.586 299.401 369.066 298.121L367.194 297.418ZM364.231 304.854C363.725 306.055 363.201 307.269 362.659 308.496L364.489 309.304C365.036 308.066 365.564 306.842 366.074 305.63L364.231 304.854Z" fill="black"/>
</svg>
